<svg xmlns="http://www.w3.org/2000/svg" viewBox="0 0 390 780" role="img" aria-label="Home screen preview">
  <rect width="390" height="780" fill="#f8fafc"/>
  <rect width="390" height="52" fill="#fff"/>
  <rect x="20" y="14" width="100" height="12" rx="4" fill="#0d9488" opacity="0.4"/>
  <rect x="20" y="68" width="155" height="44" rx="10" fill="#fff" stroke="#e2e8f0"/>
  <rect x="185" y="68" width="155" height="44" rx="10" fill="#fff" stroke="#e2e8f0"/>
  <rect x="20" y="128" width="350" height="96" rx="12" fill="#ccfbf1"/>
  <text x="195" y="182" text-anchor="middle" font-family="system-ui,sans-serif" font-size="14" fill="#0f766e" font-weight="600">Sales overview</text>
  <rect x="20" y="248" width="88" height="32" rx="16" fill="#0d9488"/>
  <rect x="120" y="256" width="72" height="16" rx="8" fill="#e2e8f0"/>
  <rect x="204" y="256" width="72" height="16" rx="8" fill="#e2e8f0"/>
  <rect x="20" y="300" width="350" height="380" rx="12" fill="#fff" stroke="#e2e8f0"/>
  <rect x="36" y="328" width="220" height="10" rx="3" fill="#cbd5e1"/>
  <rect x="36" y="352" width="300" height="8" rx="2" fill="#e2e8f0"/>
  <rect x="36" y="372" width="260" height="8" rx="2" fill="#e2e8f0"/>
  <rect y="718" width="390" height="62" fill="#fff" stroke="#e2e8f0"/>
</svg>
